Coordinates
version=1
nRows=16
nColumns=36
inDegrees=yes

Units are S.I. units (second, meters, Newtons, ...)
If the header above contains a line with 'inDegrees', this indicates whether rotational values are in degrees (yes) or radians (no).

endheader
time	pelvis_tilt	pelvis_list	pelvis_rotation	pelvis_tx	pelvis_ty	pelvis_tz	hip_flexion_r	hip_adduction_r	hip_rotation_r	knee_angle_r	knee_angle_r_beta	ankle_angle_r	subtalar_angle_r	mtp_angle_r	hip_flexion_l	hip_adduction_l	hip_rotation_l	knee_angle_l	knee_angle_l_beta	ankle_angle_l	subtalar_angle_l	mtp_angle_l	lumbar_extension	lumbar_bending	lumbar_rotation	arm_flex_r	arm_add_r	arm_rot_r	elbow_flex_r	pro_sup_r	arm_flex_l	arm_add_l	arm_rot_l	elbow_flex_l	pro_sup_l
      4.45833330	     -4.80867721	     -1.63672045	      4.21275191	      0.35789355	      0.98019156	     -0.03885821	      6.41851149	     -0.06266735	      0.56599551	      9.80687381	      0.17116224	      0.89486124	    -27.59476963	     -7.49999987	     10.55512599	     -5.78471933	     11.17085036	     15.59895474	      0.27225312	      4.87838021	    -17.98299901	     -7.49999987	      0.88682620	      0.00814243	     -4.99270480	      5.95917054	     -6.41996913	     29.33108008	     37.27572139	     75.75712959	      6.79203477	    -10.41097207	     34.25695500	     37.36212160	     85.60823072
      4.46250000	     -4.79545327	     -1.60867233	      4.21263925	      0.35717738	      0.98332812	     -0.03815841	      6.40735225	     -0.02956944	      0.85143260	      9.77508445	      0.17060741	      0.75149045	    -27.87297974	     -7.49999987	     10.62518105	     -5.76887274	     11.09537637	     15.68308507	      0.27372147	      4.85423173	    -18.00591529	     -7.49999987	      0.81899018	     -0.05325017	     -4.96053535	      6.05983448	     -6.31782386	     29.49502022	     37.04411385	     74.25683112	      6.85941703	    -10.44967385	     34.37598177	     37.02327219	     83.23710907
      4.46666670	     -4.77194450	     -1.58227989	      4.21537035	      0.35768716	      0.98054044	     -0.03881333	      6.45476919	     -0.04826502	      0.85200638	      9.88178816	      0.17246974	      0.84692801	    -27.87753264	     -7.49999987	     10.65362088	     -5.77391853	     11.08108888	     15.75098381	      0.27490653	      4.97995358	    -17.95217511	     -7.49999987	      0.73477273	     -0.10906830	     -4.96248163	      6.10194913	     -6.27083348	     29.54582258	     37.05855842	     74.01254518	      6.86990213	    -10.43503100	     34.40017477	     36.90303970	     82.87173830
      4.47083330	     -4.79523985	     -1.57413588	      4.22922226	      0.35707141	      0.98353184	     -0.03822102	      6.53839087	     -0.05643406	      0.94887734	      9.98492974	      0.17426990	      0.67236766	    -28.02559560	     -7.49999987	     10.73525971	     -5.77729096	     11.19233045	     15.80374684	      0.27582742	      4.89245230	    -18.10856121	     -7.49999987	      0.68676878	     -0.13202212	     -5.01502423	      6.10007414	     -6.22018002	     29.48769492	     37.25209287	     72.94162859	      6.80178443	    -10.45903171	     34.46185946	     36.91738653	     81.33190068
      4.47500000	     -4.90895250	     -1.57054125	      4.18955923	      0.35762620	      0.98354614	     -0.03881740	      6.75636687	     -0.07794149	      1.06083151	     10.14188843	      0.17700935	      0.76788480	    -27.87454848	     -7.49999987	     10.87576174	     -5.79542502	     11.12596626	     15.83594684	      0.27638941	      4.98830922	    -17.92977911	     -7.49999987	      0.85792306	     -0.16591120	     -4.89956586	      6.09820124	     -6.28588201	     29.74241358	     36.90421847	     75.95638339	      6.83194969	    -10.45391698	     34.52822133	     36.58588059	     85.44146746
      4.47916670	     -4.90572354	     -1.58111132	      4.20954370	      0.35721565	      0.98333183	     -0.03825013	      6.78592944	     -0.08971445	      1.12430360	     10.23489864	      0.17863268	      0.69224689	    -27.91104086	     -7.49999987	     10.88465737	     -5.80690658	     11.09439756	     15.87955449	      0.27715051	      5.04481630	    -17.83327563	     -7.49999987	      0.81382565	     -0.15792601	     -4.97184288	      6.06297223	     -6.24420219	     29.53862261	     36.82777624	     75.58131476	      6.78223999	    -10.40148765	     34.38681182	     36.46105989	     84.91819565
      4.48333330	     -4.89809805	     -1.53606360	      4.19796565	      0.35772239	      0.98329811	     -0.03890653	      6.80050735	     -0.15532034	      1.18618040	     10.30269759	      0.17981599	      0.81223383	    -27.86053183	     -7.49999987	     10.86862087	     -5.77417511	     11.07422225	     15.88358198	      0.27722080	      5.05718627	    -17.77926404	     -7.49999987	      0.80967283	     -0.22953981	     -5.01520701	      6.08601485	     -6.17532916	     29.44171157	     36.51235928	     75.56030179	      6.79044057	    -10.32850737	     34.35123893	     36.11543039	     84.85270281
      4.48750000	     -4.90553257	     -1.56794862	      4.17626960	      0.35724160	      0.98313480	     -0.03812720	      6.86313594	     -0.10424931	      1.33366846	     10.38294986	      0.18121666	      0.86252288	    -27.89115346	     -7.49999987	     10.87719337	     -5.82982771	     10.94958883	     15.90468509	      0.27758912	      5.20241109	    -17.69822313	     -7.49999987	      0.80020714	     -0.21535629	     -5.02894629	      6.08643014	     -6.11324010	     29.34988825	     36.32656645	     75.41047424	      6.79705814	    -10.25692743	     34.33691635	     35.78608187	     84.62403556
      4.49166670	     -4.99411018	     -1.58153336	      4.20293654	      0.35776066	      0.98319425	     -0.03891063	      6.94275733	     -0.10606706	      1.27235202	     10.43354041	      0.18209963	      1.32662465	    -27.41933045	     -7.49999987	     10.96364181	     -5.84015367	     10.84094695	     15.90401494	      0.27757742	      5.36874780	    -17.49578925	     -7.49999987	      0.90954791	     -0.21075451	     -5.08663815	      5.97730803	     -6.19695921	     29.32245529	     36.41647411	     75.29162589	      6.73868876	    -10.21704963	     34.35064032	     35.86481165	     84.43717579
      4.49583330	     -4.87941287	     -1.58367903	      4.10776854	      0.35715704	      0.98312533	     -0.03813242	      6.86307879	     -0.05350045	      1.41682060	     10.48575115	      0.18301088	      1.08221168	    -27.67008214	     -7.49999987	     10.84142101	     -5.87072285	     10.71037332	     15.85029848	      0.27663990	      5.27963813	    -17.70228158	     -7.49999987	      0.68953763	     -0.22021897	     -5.05802052	      6.08395790	     -6.08548935	     28.81831669	     36.09801957	     77.15218789	      7.03251982	    -10.06723364	     34.32131394	     35.19190164	     86.90514017
      4.50000000	     -4.81304151	     -1.57395396	      4.09530701	      0.35761105	      0.98349587	     -0.03877471	      6.73957054	     -0.05343432	      1.41926170	     10.40601524	      0.18161923	      1.14486025	    -27.57314496	     -7.49999987	     10.76233658	     -5.87164599	     10.63703985	     15.78761435	      0.27554585	      5.24575439	    -17.65181012	     -7.49999987	      0.57293419	     -0.26146344	     -5.12894689	      6.13346265	     -6.06081057	     28.79603732	     35.96401265	     77.05993278	      7.04703788	    -10.01491155	     34.28916696	     34.96487141	     86.72985664
      4.50416670	     -4.83317208	     -1.60727511	      4.06931714	      0.36086356	      0.98299117	     -0.04293946	      6.70495198	     -0.09253070	      1.42612822	     10.41375892	      0.18175438	      1.14238377	    -27.57110268	     -7.49999987	     10.76553282	     -5.86476765	     10.63452924	     15.78585164	      0.27551509	      5.24286321	    -17.65003242	     -7.49999987	      0.56745941	     -0.26399029	     -5.12836585	      6.13142349	     -6.05707940	     28.79655954	     35.96319697	     77.05999322	      7.04506452	    -10.01921810	     34.28887918	     34.96262826	     86.72980210
      4.50833330	     -4.82825927	     -1.61977607	      4.08415415	      0.35712893	      0.98324350	     -0.03857275	      6.70581414	     -0.09771296	      1.43255560	     10.40359389	      0.18157697	      1.14079493	    -27.56612657	     -7.49999987	     10.78078003	     -5.86464493	     10.63291542	     15.77917808	      0.27539861	      5.24265192	    -17.65144168	     -7.49999987	      0.56643936	     -0.25479666	     -5.13422668	      6.12188146	     -6.07050939	     28.79526689	     35.95914877	     77.05988210	      7.03514905	    -10.01003180	     34.29121216	     34.96041973	     86.72992890
      4.51250000	     -4.63312517	     -1.60401308	      4.02979504	      0.35704803	      0.98341784	     -0.03799903	      6.15511591	     -0.08783888	      1.70216749	      9.71571502	      0.16957122	      0.94358040	    -27.24258118	     -7.49999987	     10.41016995	     -5.87978913	     10.57899300	     15.49076635	      0.27036488	      4.88356341	    -17.74967860	     -7.49999987	      0.39217414	     -0.18675389	     -5.20618103	      6.14419591	     -6.09716404	     28.70923053	     35.74500453	     76.85363613	      6.94605154	     -9.86882563	     34.19620304	     34.20297393	     86.36812244
      4.51666670	     -4.61890256	     -1.63044480	      4.03031609	      0.35748370	      0.98079379	     -0.03838292	      6.07498854	     -0.05406333	      1.73699279	      9.55567090	      0.16677792	      0.97764207	    -27.09748957	     -7.49999987	     10.40133164	     -5.91098134	     10.63298560	     15.47905384	      0.27016045	      4.73092607	    -17.96475830	     -7.49999987	      0.38447436	     -0.16699907	     -5.14502863	      6.12053390	     -6.11562545	     28.74335284	     35.80200337	     76.23928771	      6.97089582	     -9.85456723	     34.26911421	     33.91991350	     85.38193769
      4.52083330	     -4.73248674	     -1.63058982	      3.97814082	      0.35718475	      0.98049206	     -0.03770054	      6.13090415	     -0.01541751	      1.72994536	      9.42912360	      0.16456925	      0.98486914	    -27.16368798	     -7.49999987	     10.56242883	     -5.95153481	     10.51335134	     15.53728062	      0.27117670	      4.83390797	    -17.68999088	     -7.49999987	      0.49679723	     -0.22362430	     -5.14610240	      5.99967361	     -6.11364407	     28.60808577	     36.13274702	     75.56931407	      6.79899404	     -9.96096402	     34.14893874	     34.01176378	     84.47718969
